# xmcd
#
# Track frame offsets: 
#        150
#        10345
#        25458
#        40975
#        52434
#        62693
#        72132
#        82679
#        93256
#        104059
#        113295
#        124145
#        135208
#        144474
#        155626
#        165530
#
# Disc length: 2335 seconds
#
# Revision: 1
# Processed by: cddbd v1.5.2PL0 Copyright (c) Steve Scherf et al.
# Submitted via: ExactAudioCopy v1.1
#
DISCID=d2091d10
DTITLE=Chet Atkins_1954-55 - Chet Atkins_Guitar Giant_CD2
DYEAR=2007
DGENRE=Instrumental
TTITLE0=Silver Bell
TTITLE1=The Birth Of The Blues
TTITLE2=Caravan
TTITLE3=Old Man River
TTITLE4=Mister Sandman
TTITLE5=Cherry Pink And Apple Blossom White
TTITLE6=(The Wallflower) Dance With Me, Henry
TTITLE7=Darling, Je Vous Aime Beaucoup
TTITLE8=Tweedle Dee
TTITLE9=Hey, Mr. Guitar (Hey, Mr. Banjo)
TTITLE10=Blues In The Night
TTITLE11=Unchained Melody
TTITLE12=Tennessee Polka
TTITLE13=Black Mountain Rag
TTITLE14=Somebody Stole My Gal
TTITLE15=Shine On Harvest Moon
EXTD=
EXTT0=
EXTT1=
EXTT2=
EXTT3=
EXTT4=
EXTT5=
EXTT6=
EXTT7=
EXTT8=
EXTT9=
EXTT10=
EXTT11=
EXTT12=
EXTT13=
EXTT14=
EXTT15=
PLAYORDER=
